# xmcd
#
# Track frame offsets: 
#        182
#        12707
#        25102
#        37047
#        49110
#        72562
#        85372
#        96465
#        108365
#        120897
#        130200
#        143580
#        159925
#        169320
#
# Disc length: 2554 seconds
#
# Revision: 0
# Processed by: cddbd v1.4PL0 Copyright (c) Steve Scherf et al.
# Submitted via: ExactAudioCopy v0.90b4
#
DISCID=bd09f80e
DTITLE=Various Artist - Crossroads
DYEAR=1992
DGENRE=Blues
TTITLE0=Elmore James-Standing at the crossroads
TTITLE1=John Lee Hooker-Hobo blues
TTITLE2=Muddy waters-Long distance call
TTITLE3=Hall and Oates-Deep river blues
TTITLE4=Humble Pie-Every mother's son
TTITLE5=Muddy Waters-Louisiana blues
TTITLE6=Canned Heat-Can't hold on
TTITLE7=Johnny guitar Watson-One room country shack
TTITLE8=Howlin' wolf-Highway 49
TTITLE9=Canned Heat-Rollin' and tumblin' (with harmonica)
TTITLE10=Elmore James-Dust my broom
TTITLE11=Sony boy Williamson and The animals-Pontiac blues
TTITLE12=Canned Heat-Big road blues
TTITLE13=Humble Pie-Take me back
EXTD=
EXTT0=
EXTT1=
EXTT2=
EXTT3=
EXTT4=
EXTT5=
EXTT6=
EXTT7=
EXTT8=
EXTT9=
EXTT10=
EXTT11=
EXTT12=
EXTT13=
PLAYORDER=
